<?xml version="1.0" encoding="UTF-8" standalone="no"?>
<!-- Created with Inkscape (http://www.inkscape.org/) -->

<svg
   xmlns:dc="http://purl.org/dc/elements/1.1/"
   xmlns:cc="http://creativecommons.org/ns#"
   xmlns:rdf="http://www.w3.org/1999/02/22-rdf-syntax-ns#"
   xmlns:svg="http://www.w3.org/2000/svg"
   xmlns="http://www.w3.org/2000/svg"
   xmlns:sodipodi="http://sodipodi.sourceforge.net/DTD/sodipodi-0.dtd"
   xmlns:inkscape="http://www.inkscape.org/namespaces/inkscape"
   width="512"
   height="512"
   viewBox="0 0 512 512.00001"
   id="svg3351"
   version="1.1"
   inkscape:version="0.91 r13725"
   sodipodi:docname="icon_svg.svg"
   inkscape:export-filename="D:\Dropbox\Files\Code\Chrome Extensions\immobile\code\images\icon_nobg.png"
   inkscape:export-xdpi="90"
   inkscape:export-ydpi="90">
  <defs
     id="defs3353" />
  <sodipodi:namedview
     id="base"
     pagecolor="#ffffff"
     bordercolor="#666666"
     borderopacity="1.0"
     inkscape:pageopacity="0.0"
     inkscape:pageshadow="2"
     inkscape:zoom="0.9899495"
     inkscape:cx="-44.140653"
     inkscape:cy="217.32586"
     inkscape:document-units="px"
     inkscape:current-layer="layer1"
     showgrid="false"
     units="px"
     inkscape:window-width="1858"
     inkscape:window-height="1057"
     inkscape:window-x="54"
     inkscape:window-y="-8"
     inkscape:window-maximized="1" />
  <metadata
     id="metadata3356">
    <rdf:RDF>
      <cc:Work
         rdf:about="">
        <dc:format>image/svg+xml</dc:format>
        <dc:type
           rdf:resource="http://purl.org/dc/dcmitype/StillImage" />
        <dc:title />
      </cc:Work>
    </rdf:RDF>
  </metadata>
  <g
     inkscape:label="Layer 1"
     inkscape:groupmode="layer"
     id="layer1"
     transform="translate(0,-540.36213)">
    <path
       style="fill:#de991c;fill-opacity:1"
       d="m -445.48238,540.36204 a 100,100 0 0 0 -99.99999,100 l 0,312 a 100,100 0 0 0 99.99999,100.00016 l 312,0 A 100,100 0 0 0 -33.482355,952.36204 l 0,-312 a 100,100 0 0 0 -100.000025,-100 l -312,0 z"
       id="rect4371"
       inkscape:connector-curvature="0" />
    <rect
       style="fill:#de991c;fill-opacity:1"
       id="rect3349"
       width="512"
       height="512"
       x="0"
       y="540.36212"
       inkscape:export-xdpi="90"
       inkscape:export-ydpi="90" />
    <g
       id="g3454"
       transform="translate(-87.45186,-1037.8581)"
       style="fill:#f2f2f2">
      <path
         id="flowRoot3445-7-3-2"
         d="m 278.62681,1632.896 -12.08594,71.4121 64.54492,0 12.35937,-71.4121 -64.81835,0 z m -22.93555,134.211 -46.00391,268.4375 64.54492,0 46.00196,-268.4375 -64.54297,0 z"
         style="font-style:normal;font-weight:normal;font-size:40px;line-height:125%;font-family:sans-serif;letter-spacing:0px;word-spacing:0px;fill:#f2f2f2;fill-opacity:1;stroke:none;stroke-width:1px;stroke-linecap:butt;stroke-linejoin:miter;stroke-opacity:1"
         inkscape:connector-curvature="0" />
      <path
         id="flowRoot3445-7-3-1-8"
         d="m 408.27687,2035.5445 12.0859,-71.4121 -64.5449,0 -12.3594,71.4121 64.8184,0 z m 22.9355,-134.211 46.004,-268.4375 -64.545,0 -46.0019,268.4375 64.5429,0 z"
         style="font-style:normal;font-weight:normal;font-size:40px;line-height:125%;font-family:sans-serif;letter-spacing:0px;word-spacing:0px;fill:#f2f2f2;fill-opacity:1;stroke:none;stroke-width:1px;stroke-linecap:butt;stroke-linejoin:miter;stroke-opacity:1"
         inkscape:connector-curvature="0" />
    </g>
  </g>
</svg>
